# xmcd CD database file
# Copyright (C) 1993-1998 Ti Kan
#
# Track frame offsets:
#	150
#	17817
#	35050
#	58840
#	77600
#	94667
#	106622
#	117362
#	136742
#	145307
#	168370
#	179812
#
# Disc length: 2667 seconds
#
# Revision: 3
# Processed by: cddbd v1.4b41PL1 Copyright (c) Steve Scherf et al.
# Submitted via: NotifyCDPlayer(CDDB) 1.51.3
#
DISCID=a00a690c
DTITLE=The Silver King Band - Escape from The Planet Of The Bar Managers
DYEAR=1900
DGENRE=
TTITLE0=Voo-It
TTITLE1=Don't You Tell Nobody
TTITLE2=If You See Kay
TTITLE3=Cry To Me
TTITLE4=State Street Special
TTITLE5=Let Me Play With Your Poodle
TTITLE6=Just A Lonely Clown
TTITLE7=Moanin'
TTITLE8=Whadaya Want
TTITLE9=Mess Around
TTITLE10=Close To You Bay
TTITLE11=He Loves'So Good
EXTD=The Silver King Band is:\nFlo Mingo......................Wasboard and v
EXTD=ocals\nBarry Cuda....................Piano and vocals\nRock Bottom.....
EXTD=..Harmonica and vocals\n\nRecorded at Jiggle The Handle Studi
EXTD=os, St. Petersburg, Florida, USA - jan. 1991\n
EXTT0=
EXTT1=
EXTT2=
EXTT3=
EXTT4=
EXTT5=
EXTT6=
EXTT7=
EXTT8=
EXTT9=
EXTT10=
EXTT11=
PLAYORDER=
